<?xml version="1.0" encoding="UTF-8" standalone="no"?><svg xmlns="http://www.w3.org/2000/svg" xmlns:xlink="http://www.w3.org/1999/xlink" contentScriptType="application/ecmascript" contentStyleType="text/css" height="978px" preserveAspectRatio="none" style="width:544px;height:978px;background:#FFFFFF;" version="1.1" viewBox="0 0 544 978" width="544px" zoomAndPan="magnify"><defs><filter height="300%" id="f1kr3hndtmvf8p" width="300%" x="-1" y="-1"><feGaussianBlur result="blurOut" stdDeviation="2.0"/><feColorMatrix in="blurOut" result="blurOut2" type="matrix" values="0 0 0 0 0 0 0 0 0 0 0 0 0 0 0 0 0 0 .4 0"/><feOffset dx="4.0" dy="4.0" in="blurOut2" result="blurOut3"/><feBlend in="SourceGraphic" in2="blurOut3" mode="normal"/></filter></defs><g><ellipse cx="173.5" cy="20" fill="#000000" filter="url(#f1kr3hndtmvf8p)" rx="10" ry="10" style="stroke:none;stroke-width:1.0;"/><rect fill="#FEFECE" filter="url(#f1kr3hndtmvf8p)" height="33.9688" rx="12.5" ry="12.5" style="stroke:#A80036;stroke-width:1.5;" width="281" x="33" y="50"/><text fill="#000000" font-family="sans-serif" font-size="12" lengthAdjust="spacing" textLength="261" x="43" y="71.1387">Извлечь тест и вопросы из базы данных</text><rect fill="#FEFECE" filter="url(#f1kr3hndtmvf8p)" height="33.9688" rx="12.5" ry="12.5" style="stroke:#A80036;stroke-width:1.5;" width="277" x="35" y="103.9688"/><text fill="#000000" font-family="sans-serif" font-size="12" lengthAdjust="spacing" textLength="257" x="45" y="125.1074">Извлечь данные о попытке сдачи теста</text><rect fill="#FEFECE" filter="url(#f1kr3hndtmvf8p)" height="33.9688" rx="12.5" ry="12.5" style="stroke:#A80036;stroke-width:1.5;" width="214" x="66.5" y="157.9375"/><text fill="#000000" font-family="sans-serif" font-size="12" lengthAdjust="spacing" textLength="194" x="76.5" y="179.0762">Собрать все активные ответы</text><rect fill="#FEFECE" filter="url(#f1kr3hndtmvf8p)" height="33.9688" rx="12.5" ry="12.5" style="stroke:#A80036;stroke-width:1.5;" width="129" x="109" y="265.875"/><text fill="#000000" font-family="sans-serif" font-size="12" lengthAdjust="spacing" textLength="109" x="119" y="287.0137">Прочитать ответ</text><rect fill="#FEFECE" filter="url(#f1kr3hndtmvf8p)" height="33.9688" rx="12.5" ry="12.5" style="stroke:#A80036;stroke-width:1.5;" width="178" x="84.5" y="319.8438"/><text fill="#000000" font-family="sans-serif" font-size="12" lengthAdjust="spacing" textLength="158" x="94.5" y="340.9824">Сверить ответ с верным</text><rect fill="#FEFECE" filter="url(#f1kr3hndtmvf8p)" height="33.9688" rx="12.5" ry="12.5" style="stroke:#A80036;stroke-width:1.5;" width="118" x="114.5" y="373.8125"/><text fill="#000000" font-family="sans-serif" font-size="12" lengthAdjust="spacing" textLength="98" x="124.5" y="394.9512">Оценить ответ</text><rect fill="#FEFECE" filter="url(#f1kr3hndtmvf8p)" height="33.9688" rx="12.5" ry="12.5" style="stroke:#A80036;stroke-width:1.5;" width="309" x="19" y="439.7813"/><text fill="#000000" font-family="sans-serif" font-size="12" lengthAdjust="spacing" textLength="289" x="29" y="460.9199">Вычислить балл в соответствии с политикой</text><rect fill="#FEFECE" filter="url(#f1kr3hndtmvf8p)" height="47.9375" rx="12.5" ry="12.5" style="stroke:#A80036;stroke-width:1.5;" width="230" x="58.5" y="493.75"/><text fill="#000000" font-family="sans-serif" font-size="12" lengthAdjust="spacing" textLength="210" x="68.5" y="514.8887">Сформировать оценку за ответ,</text><text fill="#000000" font-family="sans-serif" font-size="12" lengthAdjust="spacing" textLength="112" x="68.5" y="528.8574">сложить в буфер</text><rect fill="#FEFECE" filter="url(#f1kr3hndtmvf8p)" height="33.9688" rx="12.5" ry="12.5" style="stroke:#A80036;stroke-width:1.5;" width="201" x="73" y="211.9063"/><text fill="#000000" font-family="sans-serif" font-size="12" lengthAdjust="spacing" textLength="177" x="87" y="233.0449">Перебор активных ответов</text><polygon fill="#FEFECE" filter="url(#f1kr3hndtmvf8p)" points="117.5,561.6875,229.5,561.6875,241.5,573.6875,229.5,585.6875,117.5,585.6875,105.5,573.6875,117.5,561.6875" style="stroke:#A80036;stroke-width:1.5;"/><text fill="#000000" font-family="sans-serif" font-size="11" lengthAdjust="spacing" textLength="112" x="117.5" y="577.4956">Есть ещё ответы?</text><rect fill="#FEFECE" filter="url(#f1kr3hndtmvf8p)" height="33.9688" rx="12.5" ry="12.5" style="stroke:#A80036;stroke-width:1.5;" width="181" x="346" y="375.8125"/><text fill="#000000" font-family="sans-serif" font-size="12" lengthAdjust="spacing" textLength="157" x="360" y="396.9512">Взять следующий ответ</text><rect fill="#FEFECE" filter="url(#f1kr3hndtmvf8p)" height="33.9688" rx="12.5" ry="12.5" style="stroke:#A80036;stroke-width:1.5;" width="222" x="62.5" y="605.6875"/><text fill="#000000" font-family="sans-serif" font-size="12" lengthAdjust="spacing" textLength="202" x="72.5" y="626.8262">Сложить баллы из всех оценок</text><polygon fill="#FEFECE" filter="url(#f1kr3hndtmvf8p)" points="101.5,659.6563,245.5,659.6563,257.5,671.6563,245.5,683.6563,101.5,683.6563,89.5,671.6563,101.5,659.6563" style="stroke:#A80036;stroke-width:1.5;"/><text fill="#000000" font-family="sans-serif" font-size="11" lengthAdjust="spacing" textLength="144" x="101.5" y="675.4644">Проходной балл набран</text><text fill="#000000" font-family="sans-serif" font-size="11" lengthAdjust="spacing" textLength="16" x="73.5" y="669.062">Да</text><text fill="#000000" font-family="sans-serif" font-size="11" lengthAdjust="spacing" textLength="23" x="257.5" y="669.062">Нет</text><rect fill="#FEFECE" filter="url(#f1kr3hndtmvf8p)" height="33.9688" rx="12.5" ry="12.5" style="stroke:#A80036;stroke-width:1.5;" width="110" x="24.5" y="693.6563"/><text fill="#000000" font-family="sans-serif" font-size="12" lengthAdjust="spacing" textLength="90" x="34.5" y="714.7949">Тест пройден</text><rect fill="#FEFECE" filter="url(#f1kr3hndtmvf8p)" height="33.9688" rx="12.5" ry="12.5" style="stroke:#A80036;stroke-width:1.5;" width="130" x="202.5" y="693.6563"/><text fill="#000000" font-family="sans-serif" font-size="12" lengthAdjust="spacing" textLength="110" x="212.5" y="714.7949">Тест не пройден</text><polygon fill="#FEFECE" filter="url(#f1kr3hndtmvf8p)" points="173.5,733.625,185.5,745.625,173.5,757.625,161.5,745.625,173.5,733.625" style="stroke:#A80036;stroke-width:1.5;"/><rect fill="#FEFECE" filter="url(#f1kr3hndtmvf8p)" height="33.9688" rx="12.5" ry="12.5" style="stroke:#A80036;stroke-width:1.5;" width="166" x="90.5" y="777.625"/><text fill="#000000" font-family="sans-serif" font-size="12" lengthAdjust="spacing" textLength="146" x="100.5" y="798.7637">Сохранить все оценки</text><rect fill="#FEFECE" filter="url(#f1kr3hndtmvf8p)" height="33.9688" rx="12.5" ry="12.5" style="stroke:#A80036;stroke-width:1.5;" width="186" x="80.5" y="831.5938"/><text fill="#000000" font-family="sans-serif" font-size="12" lengthAdjust="spacing" textLength="166" x="90.5" y="852.7324">Сохранить итоговый балл</text><rect fill="#FEFECE" filter="url(#f1kr3hndtmvf8p)" height="33.9688" rx="12.5" ry="12.5" style="stroke:#A80036;stroke-width:1.5;" width="325" x="11" y="885.5625"/><text fill="#000000" font-family="sans-serif" font-size="12" lengthAdjust="spacing" textLength="305" x="21" y="906.7012">Сохранить итог проверки и время завершения</text><ellipse cx="173.5" cy="950.5313" fill="#FFFFFF" filter="url(#f1kr3hndtmvf8p)" rx="11" ry="11" style="stroke:#000000;stroke-width:1.0;"/><ellipse cx="173.5" cy="950.5313" fill="#000000" rx="6" ry="6" style="stroke:#7F7F7F;stroke-width:1.0;"/><line style="stroke:#A80036;stroke-width:1.5;" x1="173.5" x2="173.5" y1="30" y2="50"/><polygon fill="#A80036" points="169.5,40,173.5,50,177.5,40,173.5,44" style="stroke:#A80036;stroke-width:1.0;"/><line style="stroke:#A80036;stroke-width:1.5;" x1="173.5" x2="173.5" y1="83.9688" y2="103.9688"/><polygon fill="#A80036" points="169.5,93.9688,173.5,103.9688,177.5,93.9688,173.5,97.9688" style="stroke:#A80036;stroke-width:1.0;"/><line style="stroke:#A80036;stroke-width:1.5;" x1="173.5" x2="173.5" y1="137.9375" y2="157.9375"/><polygon fill="#A80036" points="169.5,147.9375,173.5,157.9375,177.5,147.9375,173.5,151.9375" style="stroke:#A80036;stroke-width:1.0;"/><line style="stroke:#A80036;stroke-width:1.5;" x1="173.5" x2="173.5" y1="299.8438" y2="319.8438"/><polygon fill="#A80036" points="169.5,309.8438,173.5,319.8438,177.5,309.8438,173.5,313.8438" style="stroke:#A80036;stroke-width:1.0;"/><line style="stroke:#A80036;stroke-width:1.5;" x1="173.5" x2="173.5" y1="353.8125" y2="373.8125"/><polygon fill="#A80036" points="169.5,363.8125,173.5,373.8125,177.5,363.8125,173.5,367.8125" style="stroke:#A80036;stroke-width:1.0;"/><line style="stroke:#A80036;stroke-width:1.5;" x1="173.5" x2="173.5" y1="407.7813" y2="439.7813"/><polygon fill="#A80036" points="169.5,429.7813,173.5,439.7813,177.5,429.7813,173.5,433.7813" style="stroke:#A80036;stroke-width:1.0;"/><line style="stroke:#A80036;stroke-width:1.5;" x1="173.5" x2="173.5" y1="473.75" y2="493.75"/><polygon fill="#A80036" points="169.5,483.75,173.5,493.75,177.5,483.75,173.5,487.75" style="stroke:#A80036;stroke-width:1.0;"/><line style="stroke:#A80036;stroke-width:1.5;" x1="173.5" x2="173.5" y1="245.875" y2="265.875"/><polygon fill="#A80036" points="169.5,255.875,173.5,265.875,177.5,255.875,173.5,259.875" style="stroke:#A80036;stroke-width:1.0;"/><line style="stroke:#A80036;stroke-width:1.5;" x1="241.5" x2="436.5" y1="573.6875" y2="573.6875"/><line style="stroke:#A80036;stroke-width:1.5;" x1="436.5" x2="436.5" y1="409.7813" y2="573.6875"/><polygon fill="#A80036" points="432.5,419.7813,436.5,409.7813,440.5,419.7813,436.5,415.7813" style="stroke:#A80036;stroke-width:1.0;"/><line style="stroke:#A80036;stroke-width:1.5;" x1="436.5" x2="436.5" y1="228.8906" y2="375.8125"/><line style="stroke:#A80036;stroke-width:1.5;" x1="436.5" x2="274" y1="228.8906" y2="228.8906"/><polygon fill="#A80036" points="284,224.8906,274,228.8906,284,232.8906,280,228.8906" style="stroke:#A80036;stroke-width:1.0;"/><line style="stroke:#A80036;stroke-width:1.5;" x1="173.5" x2="173.5" y1="541.6875" y2="561.6875"/><polygon fill="#A80036" points="169.5,551.6875,173.5,561.6875,177.5,551.6875,173.5,555.6875" style="stroke:#A80036;stroke-width:1.0;"/><line style="stroke:#A80036;stroke-width:1.5;" x1="173.5" x2="173.5" y1="191.9063" y2="211.9063"/><polygon fill="#A80036" points="169.5,201.9063,173.5,211.9063,177.5,201.9063,173.5,205.9063" style="stroke:#A80036;stroke-width:1.0;"/><line style="stroke:#A80036;stroke-width:1.5;" x1="173.5" x2="173.5" y1="585.6875" y2="605.6875"/><polygon fill="#A80036" points="169.5,595.6875,173.5,605.6875,177.5,595.6875,173.5,599.6875" style="stroke:#A80036;stroke-width:1.0;"/><line style="stroke:#A80036;stroke-width:1.5;" x1="89.5" x2="79.5" y1="671.6563" y2="671.6563"/><line style="stroke:#A80036;stroke-width:1.5;" x1="79.5" x2="79.5" y1="671.6563" y2="693.6563"/><polygon fill="#A80036" points="75.5,683.6563,79.5,693.6563,83.5,683.6563,79.5,687.6563" style="stroke:#A80036;stroke-width:1.0;"/><line style="stroke:#A80036;stroke-width:1.5;" x1="257.5" x2="267.5" y1="671.6563" y2="671.6563"/><line style="stroke:#A80036;stroke-width:1.5;" x1="267.5" x2="267.5" y1="671.6563" y2="693.6563"/><polygon fill="#A80036" points="263.5,683.6563,267.5,693.6563,271.5,683.6563,267.5,687.6563" style="stroke:#A80036;stroke-width:1.0;"/><line style="stroke:#A80036;stroke-width:1.5;" x1="79.5" x2="79.5" y1="727.625" y2="745.625"/><line style="stroke:#A80036;stroke-width:1.5;" x1="79.5" x2="161.5" y1="745.625" y2="745.625"/><polygon fill="#A80036" points="151.5,741.625,161.5,745.625,151.5,749.625,155.5,745.625" style="stroke:#A80036;stroke-width:1.0;"/><line style="stroke:#A80036;stroke-width:1.5;" x1="267.5" x2="267.5" y1="727.625" y2="745.625"/><line style="stroke:#A80036;stroke-width:1.5;" x1="267.5" x2="185.5" y1="745.625" y2="745.625"/><polygon fill="#A80036" points="195.5,741.625,185.5,745.625,195.5,749.625,191.5,745.625" style="stroke:#A80036;stroke-width:1.0;"/><line style="stroke:#A80036;stroke-width:1.5;" x1="173.5" x2="173.5" y1="639.6563" y2="659.6563"/><polygon fill="#A80036" points="169.5,649.6563,173.5,659.6563,177.5,649.6563,173.5,653.6563" style="stroke:#A80036;stroke-width:1.0;"/><line style="stroke:#A80036;stroke-width:1.5;" x1="173.5" x2="173.5" y1="757.625" y2="777.625"/><polygon fill="#A80036" points="169.5,767.625,173.5,777.625,177.5,767.625,173.5,771.625" style="stroke:#A80036;stroke-width:1.0;"/><line style="stroke:#A80036;stroke-width:1.5;" x1="173.5" x2="173.5" y1="811.5938" y2="831.5938"/><polygon fill="#A80036" points="169.5,821.5938,173.5,831.5938,177.5,821.5938,173.5,825.5938" style="stroke:#A80036;stroke-width:1.0;"/><line style="stroke:#A80036;stroke-width:1.5;" x1="173.5" x2="173.5" y1="865.5625" y2="885.5625"/><polygon fill="#A80036" points="169.5,875.5625,173.5,885.5625,177.5,875.5625,173.5,879.5625" style="stroke:#A80036;stroke-width:1.0;"/><line style="stroke:#A80036;stroke-width:1.5;" x1="173.5" x2="173.5" y1="919.5313" y2="939.5313"/><polygon fill="#A80036" points="169.5,929.5313,173.5,939.5313,177.5,929.5313,173.5,933.5313" style="stroke:#A80036;stroke-width:1.0;"/><!--MD5=[9f9a802bb8fd530124d62774007ceb52]
@startuml
start
:Извлечь тест и вопросы из базы данных;
:Извлечь данные о попытке сдачи теста;
:Собрать все активные ответы;
repeat: Перебор активных ответов
  :Прочитать ответ;
  :Сверить ответ с верным;
  :Оценить ответ;
  :Вычислить балл в соответствии с политикой;
  :Сформировать оценку за ответ, 
  сложить в буфер;
backward: Взять следующий ответ;
repeat while (Есть ещё ответы?)
:Сложить баллы из всех оценок;
if (Проходной балл набран) then (Да)
    :Тест пройден;
else (Нет)
    :Тест не пройден;
endif
:Сохранить все оценки;
:Сохранить итоговый балл;
:Сохранить итог проверки и время завершения;
stop
@enduml

PlantUML version 1.2021.10beta2(Unknown compile time)
(GPL source distribution)
Java Runtime: Java(TM) SE Runtime Environment
JVM: Java HotSpot(TM) 64-Bit Server VM
Default Encoding: UTF-8
Language: en
Country: US
--></g></svg>