<?xml version="1.0" encoding="UTF-8" standalone="no"?><svg xmlns="http://www.w3.org/2000/svg" xmlns:xlink="http://www.w3.org/1999/xlink" contentScriptType="application/ecmascript" contentStyleType="text/css" height="1823px" preserveAspectRatio="none" style="width:1311px;height:1823px;background:#FFFFFF;" version="1.1" viewBox="0 0 1311 1823" width="1311px" zoomAndPan="magnify"><defs><filter height="300%" id="f1sljeprq2q0c" width="300%" x="-1" y="-1"><feGaussianBlur result="blurOut" stdDeviation="2.0"/><feColorMatrix in="blurOut" result="blurOut2" type="matrix" values="0 0 0 0 0 0 0 0 0 0 0 0 0 0 0 0 0 0 .4 0"/><feOffset dx="4.0" dy="4.0" in="blurOut2" result="blurOut3"/><feBlend in="SourceGraphic" in2="blurOut3" mode="normal"/></filter></defs><g><rect fill="#FEFECE" filter="url(#f1sljeprq2q0c)" height="36.2969" rx="12.5" ry="12.5" style="stroke:#A80036;stroke-width:1.5;" width="93" x="10" y="892.6016"/><text fill="#000000" font-family="sans-serif" font-size="14" lengthAdjust="spacing" textLength="73" x="20" y="915.5967">AlphaTest</text><rect fill="#FEFECE" filter="url(#f1sljeprq2q0c)" height="36.2969" rx="12.5" ry="12.5" style="stroke:#A80036;stroke-width:1.5;" width="175" x="153" y="217.0391"/><text fill="#000000" font-family="sans-serif" font-size="14" lengthAdjust="spacing" textLength="155" x="163" y="240.0342">Составление тестов</text><rect fill="#FEFECE" filter="url(#f1sljeprq2q0c)" height="36.2969" rx="12.5" ry="12.5" style="stroke:#A80036;stroke-width:1.5;" width="208" x="378" y="20"/><text fill="#000000" font-family="sans-serif" font-size="14" lengthAdjust="spacing" textLength="188" x="388" y="42.9951">Просмотр списка тестов</text><path d="M328,235.1875 L338,235.1875 C353,235.1875 353,38.1484 368,38.1484 L378,38.1484 " fill="none" style="stroke:#A80036;stroke-width:1.0;"/><rect fill="#FEFECE" filter="url(#f1sljeprq2q0c)" height="36.2969" rx="12.5" ry="12.5" style="stroke:#A80036;stroke-width:1.5;" width="139" x="378" y="76.2969"/><text fill="#000000" font-family="sans-serif" font-size="14" lengthAdjust="spacing" textLength="119" x="388" y="99.292">Создание теста</text><path d="M328,235.1875 L338,235.1875 C353,235.1875 353,94.4453 368,94.4453 L378,94.4453 " fill="none" style="stroke:#A80036;stroke-width:1.0;"/><rect fill="#FEFECE" filter="url(#f1sljeprq2q0c)" height="36.2969" rx="12.5" ry="12.5" style="stroke:#A80036;stroke-width:1.5;" width="193" x="378" y="132.5938"/><text fill="#000000" font-family="sans-serif" font-size="14" lengthAdjust="spacing" textLength="173" x="388" y="155.5889">Редактирование теста</text><rect fill="#FEFECE" filter="url(#f1sljeprq2q0c)" height="36.2969" rx="12.5" ry="12.5" style="stroke:#A80036;stroke-width:1.5;" width="321" x="621" y="76.2969"/><text fill="#000000" font-family="sans-serif" font-size="14" lengthAdjust="spacing" textLength="301" x="631" y="99.292">Изменение настроек проведения теста</text><path d="M571,150.7422 L581,150.7422 C596,150.7422 596,94.4453 611,94.4453 L621,94.4453 " fill="none" style="stroke:#A80036;stroke-width:1.0;"/><rect fill="#FEFECE" filter="url(#f1sljeprq2q0c)" height="36.2969" rx="12.5" ry="12.5" style="stroke:#A80036;stroke-width:1.5;" width="236" x="621" y="160.7422"/><text fill="#000000" font-family="sans-serif" font-size="14" lengthAdjust="spacing" textLength="216" x="631" y="183.7373">Работа со списком вопросов</text><rect fill="#FEFECE" filter="url(#f1sljeprq2q0c)" height="36.2969" rx="12.5" ry="12.5" style="stroke:#A80036;stroke-width:1.5;" width="385" x="907" y="132.5938"/><text fill="#000000" font-family="sans-serif" font-size="14" lengthAdjust="spacing" textLength="365" x="917" y="155.5889">Добавление/удаление/редактирование вопроса</text><path d="M857,178.8906 L867,178.8906 C882,178.8906 882,150.7422 897,150.7422 L907,150.7422 " fill="none" style="stroke:#A80036;stroke-width:1.0;"/><rect fill="#FEFECE" filter="url(#f1sljeprq2q0c)" height="36.2969" rx="12.5" ry="12.5" style="stroke:#A80036;stroke-width:1.5;" width="308" x="907" y="188.8906"/><text fill="#000000" font-family="sans-serif" font-size="14" lengthAdjust="spacing" textLength="288" x="917" y="211.8857">Изменение порядка вопросов в тесте</text><path d="M857,178.8906 L867,178.8906 C882,178.8906 882,207.0391 897,207.0391 L907,207.0391 " fill="none" style="stroke:#A80036;stroke-width:1.0;"/><path d="M571,150.7422 L581,150.7422 C596,150.7422 596,178.8906 611,178.8906 L621,178.8906 " fill="none" style="stroke:#A80036;stroke-width:1.0;"/><path d="M328,235.1875 L338,235.1875 C353,235.1875 353,150.7422 368,150.7422 L378,150.7422 " fill="none" style="stroke:#A80036;stroke-width:1.0;"/><rect fill="#FEFECE" filter="url(#f1sljeprq2q0c)" height="36.2969" rx="12.5" ry="12.5" style="stroke:#A80036;stroke-width:1.5;" width="199" x="378" y="188.8906"/><text fill="#000000" font-family="sans-serif" font-size="14" lengthAdjust="spacing" textLength="179" x="388" y="211.8857">Списание теста в архив</text><path d="M328,235.1875 L338,235.1875 C353,235.1875 353,207.0391 368,207.0391 L378,207.0391 " fill="none" style="stroke:#A80036;stroke-width:1.0;"/><rect fill="#FEFECE" filter="url(#f1sljeprq2q0c)" height="36.2969" rx="12.5" ry="12.5" style="stroke:#A80036;stroke-width:1.5;" width="266" x="378" y="245.1875"/><text fill="#000000" font-family="sans-serif" font-size="14" lengthAdjust="spacing" textLength="246" x="388" y="268.1826">Создание новой редакции теста</text><path d="M328,235.1875 L338,235.1875 C353,235.1875 353,263.3359 368,263.3359 L378,263.3359 " fill="none" style="stroke:#A80036;stroke-width:1.0;"/><rect fill="#FEFECE" filter="url(#f1sljeprq2q0c)" height="36.2969" rx="12.5" ry="12.5" style="stroke:#A80036;stroke-width:1.5;" width="247" x="378" y="357.7813"/><text fill="#000000" font-family="sans-serif" font-size="14" lengthAdjust="spacing" textLength="227" x="388" y="380.7764">Управление доступом к тесту</text><rect fill="#FEFECE" filter="url(#f1sljeprq2q0c)" height="36.2969" rx="12.5" ry="12.5" style="stroke:#A80036;stroke-width:1.5;" width="193" x="675" y="301.4844"/><text fill="#000000" font-family="sans-serif" font-size="14" lengthAdjust="spacing" textLength="173" x="685" y="324.4795">Добавить составителя</text><path d="M625,375.9297 L635,375.9297 C650,375.9297 650,319.6328 665,319.6328 L675,319.6328 " fill="none" style="stroke:#A80036;stroke-width:1.0;"/><rect fill="#FEFECE" filter="url(#f1sljeprq2q0c)" height="36.2969" rx="12.5" ry="12.5" style="stroke:#A80036;stroke-width:1.5;" width="244" x="675" y="357.7813"/><text fill="#000000" font-family="sans-serif" font-size="14" lengthAdjust="spacing" textLength="224" x="685" y="380.7764">Выйти из числа составителей</text><path d="M625,375.9297 L635,375.9297 C650,375.9297 650,375.9297 665,375.9297 L675,375.9297 " fill="none" style="stroke:#A80036;stroke-width:1.0;"/><rect fill="#FEFECE" filter="url(#f1sljeprq2q0c)" height="36.2969" rx="12.5" ry="12.5" style="stroke:#A80036;stroke-width:1.5;" width="365" x="675" y="414.0781"/><text fill="#000000" font-family="sans-serif" font-size="14" lengthAdjust="spacing" textLength="345" x="685" y="437.0732">Отправка заявки на исключение составителя</text><path d="M625,375.9297 L635,375.9297 C650,375.9297 650,432.2266 665,432.2266 L675,432.2266 " fill="none" style="stroke:#A80036;stroke-width:1.0;"/><path d="M328,235.1875 L338,235.1875 C353,235.1875 353,375.9297 368,375.9297 L378,375.9297 " fill="none" style="stroke:#A80036;stroke-width:1.0;"/><path d="M103,910.75 L113,910.75 C128,910.75 128,235.1875 143,235.1875 L153,235.1875 " fill="none" style="stroke:#A80036;stroke-width:1.0;"/><rect fill="#FFA500" filter="url(#f1sljeprq2q0c)" height="36.2969" rx="12.5" ry="12.5" style="stroke:#A80036;stroke-width:1.5;" width="238" x="153" y="470.375"/><text fill="#000000" font-family="sans-serif" font-size="14" lengthAdjust="spacing" textLength="218" x="163" y="493.3701">Работа с учебными группами</text><path d="M103,910.75 L113,910.75 C128,910.75 128,488.5234 143,488.5234 L153,488.5234 " fill="none" style="stroke:#A80036;stroke-width:1.0;"/><rect fill="#FFA500" filter="url(#f1sljeprq2q0c)" height="36.2969" rx="12.5" ry="12.5" style="stroke:#A80036;stroke-width:1.5;" width="197" x="153" y="554.8203"/><text fill="#000000" font-family="sans-serif" font-size="14" lengthAdjust="spacing" textLength="177" x="163" y="577.8154">Проведение экзаменов</text><rect fill="#FEFECE" filter="url(#f1sljeprq2q0c)" height="36.2969" rx="12.5" ry="12.5" style="stroke:#A80036;stroke-width:1.5;" width="202" x="400" y="526.6719"/><text fill="#000000" font-family="sans-serif" font-size="14" lengthAdjust="spacing" textLength="182" x="410" y="549.667">Планирование экзамена</text><path d="M350,572.9688 L360,572.9688 C375,572.9688 375,544.8203 390,544.8203 L400,544.8203 " fill="none" style="stroke:#A80036;stroke-width:1.0;"/><rect fill="#FEFECE" filter="url(#f1sljeprq2q0c)" height="36.2969" rx="12.5" ry="12.5" style="stroke:#A80036;stroke-width:1.5;" width="235" x="400" y="582.9688"/><text fill="#000000" font-family="sans-serif" font-size="14" lengthAdjust="spacing" textLength="215" x="410" y="605.9639">Просмотр списка экзаменов</text><path d="M350,572.9688 L360,572.9688 C375,572.9688 375,601.1172 390,601.1172 L400,601.1172 " fill="none" style="stroke:#A80036;stroke-width:1.0;"/><path d="M103,910.75 L113,910.75 C128,910.75 128,572.9688 143,572.9688 L153,572.9688 " fill="none" style="stroke:#A80036;stroke-width:1.0;"/><rect fill="#FEFECE" filter="url(#f1sljeprq2q0c)" height="36.2969" rx="12.5" ry="12.5" style="stroke:#A80036;stroke-width:1.5;" width="175" x="153" y="864.4531"/><text fill="#000000" font-family="sans-serif" font-size="14" lengthAdjust="spacing" textLength="155" x="163" y="887.4482">Сдача тестирования</text><rect fill="#FEFECE" filter="url(#f1sljeprq2q0c)" height="36.2969" rx="12.5" ry="12.5" style="stroke:#A80036;stroke-width:1.5;" width="293" x="378" y="639.2656"/><text fill="#000000" font-family="sans-serif" font-size="14" lengthAdjust="spacing" textLength="273" x="388" y="662.2607">Просмотр списка доступных тестов</text><path d="M328,882.6016 L338,882.6016 C353,882.6016 353,657.4141 368,657.4141 L378,657.4141 " fill="none" style="stroke:#A80036;stroke-width:1.0;"/><rect fill="#FEFECE" filter="url(#f1sljeprq2q0c)" height="36.2969" rx="12.5" ry="12.5" style="stroke:#A80036;stroke-width:1.5;" width="178" x="378" y="892.6016"/><text fill="#000000" font-family="sans-serif" font-size="14" lengthAdjust="spacing" textLength="158" x="388" y="915.5967">Выполнение задания</text><rect fill="#FEFECE" filter="url(#f1sljeprq2q0c)" height="36.2969" rx="12.5" ry="12.5" style="stroke:#A80036;stroke-width:1.5;" width="345" x="606" y="695.5625"/><text fill="#000000" font-family="sans-serif" font-size="14" lengthAdjust="spacing" textLength="325" x="616" y="718.5576">Просмотр информации о сдаваемом тесте</text><path d="M556,910.75 L566,910.75 C581,910.75 581,713.7109 596,713.7109 L606,713.7109 " fill="none" style="stroke:#A80036;stroke-width:1.0;"/><rect fill="#FEFECE" filter="url(#f1sljeprq2q0c)" height="36.2969" rx="12.5" ry="12.5" style="stroke:#A80036;stroke-width:1.5;" width="227" x="606" y="751.8594"/><text fill="#000000" font-family="sans-serif" font-size="14" lengthAdjust="spacing" textLength="207" x="616" y="774.8545">Просмотр списка вопросов</text><path d="M556,910.75 L566,910.75 C581,910.75 581,770.0078 596,770.0078 L606,770.0078 " fill="none" style="stroke:#A80036;stroke-width:1.0;"/><rect fill="#FEFECE" filter="url(#f1sljeprq2q0c)" height="36.2969" rx="12.5" ry="12.5" style="stroke:#A80036;stroke-width:1.5;" width="277" x="606" y="808.1563"/><text fill="#000000" font-family="sans-serif" font-size="14" lengthAdjust="spacing" textLength="257" x="616" y="831.1514">Просмотр информации о вопросе</text><path d="M556,910.75 L566,910.75 C581,910.75 581,826.3047 596,826.3047 L606,826.3047 " fill="none" style="stroke:#A80036;stroke-width:1.0;"/><rect fill="#FEFECE" filter="url(#f1sljeprq2q0c)" height="36.2969" rx="12.5" ry="12.5" style="stroke:#A80036;stroke-width:1.5;" width="226" x="606" y="864.4531"/><text fill="#000000" font-family="sans-serif" font-size="14" lengthAdjust="spacing" textLength="206" x="616" y="887.4482">Переход между вопросами</text><path d="M556,910.75 L566,910.75 C581,910.75 581,882.6016 596,882.6016 L606,882.6016 " fill="none" style="stroke:#A80036;stroke-width:1.0;"/><rect fill="#FEFECE" filter="url(#f1sljeprq2q0c)" height="36.2969" rx="12.5" ry="12.5" style="stroke:#A80036;stroke-width:1.5;" width="168" x="606" y="977.0469"/><text fill="#000000" font-family="sans-serif" font-size="14" lengthAdjust="spacing" textLength="148" x="616" y="1000.042">Ответы на вопросы</text><rect fill="#FEFECE" filter="url(#f1sljeprq2q0c)" height="36.2969" rx="12.5" ry="12.5" style="stroke:#A80036;stroke-width:1.5;" width="150" x="824" y="920.75"/><text fill="#000000" font-family="sans-serif" font-size="14" lengthAdjust="spacing" textLength="130" x="834" y="943.7451">Отправка ответа</text><path d="M774,995.1953 L784,995.1953 C799,995.1953 799,938.8984 814,938.8984 L824,938.8984 " fill="none" style="stroke:#A80036;stroke-width:1.0;"/><rect fill="#FEFECE" filter="url(#f1sljeprq2q0c)" height="36.2969" rx="12.5" ry="12.5" style="stroke:#A80036;stroke-width:1.5;" width="125" x="824" y="977.0469"/><text fill="#000000" font-family="sans-serif" font-size="14" lengthAdjust="spacing" textLength="105" x="834" y="1000.042">Отзыв ответа</text><path d="M774,995.1953 L784,995.1953 C799,995.1953 799,995.1953 814,995.1953 L824,995.1953 " fill="none" style="stroke:#A80036;stroke-width:1.0;"/><rect fill="#FEFECE" filter="url(#f1sljeprq2q0c)" height="36.2969" rx="12.5" ry="12.5" style="stroke:#A80036;stroke-width:1.5;" width="177" x="824" y="1033.3438"/><text fill="#000000" font-family="sans-serif" font-size="14" lengthAdjust="spacing" textLength="157" x="834" y="1056.3389">Повторная отправка</text><path d="M774,995.1953 L784,995.1953 C799,995.1953 799,1051.4922 814,1051.4922 L824,1051.4922 " fill="none" style="stroke:#A80036;stroke-width:1.0;"/><path d="M556,910.75 L566,910.75 C581,910.75 581,995.1953 596,995.1953 L606,995.1953 " fill="none" style="stroke:#A80036;stroke-width:1.0;"/><rect fill="#FEFECE" filter="url(#f1sljeprq2q0c)" height="36.2969" rx="12.5" ry="12.5" style="stroke:#A80036;stroke-width:1.5;" width="224" x="606" y="1089.6406"/><text fill="#000000" font-family="sans-serif" font-size="14" lengthAdjust="spacing" textLength="204" x="616" y="1112.6357">Завершение тестирования</text><path d="M556,910.75 L566,910.75 C581,910.75 581,1107.7891 596,1107.7891 L606,1107.7891 " fill="none" style="stroke:#A80036;stroke-width:1.0;"/><path d="M328,882.6016 L338,882.6016 C353,882.6016 353,910.75 368,910.75 L378,910.75 " fill="none" style="stroke:#A80036;stroke-width:1.0;"/><path d="M103,910.75 L113,910.75 C128,910.75 128,882.6016 143,882.6016 L153,882.6016 " fill="none" style="stroke:#A80036;stroke-width:1.0;"/><rect fill="#FEFECE" filter="url(#f1sljeprq2q0c)" height="36.2969" rx="12.5" ry="12.5" style="stroke:#A80036;stroke-width:1.5;" width="308" x="153" y="1145.9375"/><text fill="#000000" font-family="sans-serif" font-size="14" lengthAdjust="spacing" textLength="288" x="163" y="1168.9326">Просмотр результатов тестирования</text><path d="M103,910.75 L113,910.75 C128,910.75 128,1164.0859 143,1164.0859 L153,1164.0859 " fill="none" style="stroke:#A80036;stroke-width:1.0;"/><rect fill="#FEFECE" filter="url(#f1sljeprq2q0c)" height="36.2969" rx="12.5" ry="12.5" style="stroke:#A80036;stroke-width:1.5;" width="143" x="153" y="1258.5313"/><text fill="#000000" font-family="sans-serif" font-size="14" lengthAdjust="spacing" textLength="123" x="163" y="1281.5264">Проверка работ</text><rect fill="#FEFECE" filter="url(#f1sljeprq2q0c)" height="36.2969" rx="12.5" ry="12.5" style="stroke:#A80036;stroke-width:1.5;" width="324" x="346" y="1202.2344"/><text fill="#000000" font-family="sans-serif" font-size="14" lengthAdjust="spacing" textLength="304" x="356" y="1225.2295">Просмотр списка непроверенных работ</text><path d="M296,1276.6797 L306,1276.6797 C321,1276.6797 321,1220.3828 336,1220.3828 L346,1220.3828 " fill="none" style="stroke:#A80036;stroke-width:1.0;"/><rect fill="#FEFECE" filter="url(#f1sljeprq2q0c)" height="36.2969" rx="12.5" ry="12.5" style="stroke:#A80036;stroke-width:1.5;" width="340" x="346" y="1258.5313"/><text fill="#000000" font-family="sans-serif" font-size="14" lengthAdjust="spacing" textLength="320" x="356" y="1281.5264">Ручная проверка работы преподавателем</text><path d="M296,1276.6797 L306,1276.6797 C321,1276.6797 321,1276.6797 336,1276.6797 L346,1276.6797 " fill="none" style="stroke:#A80036;stroke-width:1.0;"/><rect fill="#FEFECE" filter="url(#f1sljeprq2q0c)" height="36.2969" rx="12.5" ry="12.5" style="stroke:#A80036;stroke-width:1.5;" width="282" x="346" y="1314.8281"/><text fill="#000000" font-family="sans-serif" font-size="14" lengthAdjust="spacing" textLength="262" x="356" y="1337.8232">Автоматическая проверка работы</text><path d="M296,1276.6797 L306,1276.6797 C321,1276.6797 321,1332.9766 336,1332.9766 L346,1332.9766 " fill="none" style="stroke:#A80036;stroke-width:1.0;"/><path d="M103,910.75 L113,910.75 C128,910.75 128,1276.6797 143,1276.6797 L153,1276.6797 " fill="none" style="stroke:#A80036;stroke-width:1.0;"/><rect fill="#FFA500" filter="url(#f1sljeprq2q0c)" height="36.2969" rx="12.5" ry="12.5" style="stroke:#A80036;stroke-width:1.5;" width="110" x="153" y="1314.8281"/><text fill="#000000" font-family="sans-serif" font-size="14" lengthAdjust="spacing" textLength="90" x="163" y="1337.8232">Отчётность</text><path d="M103,910.75 L113,910.75 C128,910.75 128,1332.9766 143,1332.9766 L153,1332.9766 " fill="none" style="stroke:#A80036;stroke-width:1.0;"/><rect fill="#FFA500" filter="url(#f1sljeprq2q0c)" height="36.2969" rx="12.5" ry="12.5" style="stroke:#A80036;stroke-width:1.5;" width="263" x="153" y="1371.125"/><text fill="#000000" font-family="sans-serif" font-size="14" lengthAdjust="spacing" textLength="243" x="163" y="1394.1201">Управление учётными записями</text><path d="M103,910.75 L113,910.75 C128,910.75 128,1389.2734 143,1389.2734 L153,1389.2734 " fill="none" style="stroke:#A80036;stroke-width:1.0;"/><rect fill="#FFA500" filter="url(#f1sljeprq2q0c)" height="36.2969" rx="12.5" ry="12.5" style="stroke:#A80036;stroke-width:1.5;" width="198" x="153" y="1596.3125"/><text fill="#000000" font-family="sans-serif" font-size="14" lengthAdjust="spacing" textLength="178" x="163" y="1619.3076">Отправка уведомлений</text><rect fill="#FEFECE" filter="url(#f1sljeprq2q0c)" height="36.2969" rx="12.5" ry="12.5" style="stroke:#A80036;stroke-width:1.5;" width="103" x="401" y="1483.7188"/><text fill="#000000" font-family="sans-serif" font-size="14" lengthAdjust="spacing" textLength="83" x="411" y="1506.7139">Студентам</text><rect fill="#FEFECE" filter="url(#f1sljeprq2q0c)" height="36.2969" rx="12.5" ry="12.5" style="stroke:#A80036;stroke-width:1.5;" width="306" x="554" y="1427.4219"/><text fill="#000000" font-family="sans-serif" font-size="14" lengthAdjust="spacing" textLength="286" x="564" y="1450.417">О предоставлении доступа к системе</text><path d="M504,1501.8672 L514,1501.8672 C529,1501.8672 529,1445.5703 544,1445.5703 L554,1445.5703 " fill="none" style="stroke:#A80036;stroke-width:1.0;"/><rect fill="#FEFECE" filter="url(#f1sljeprq2q0c)" height="36.2969" rx="12.5" ry="12.5" style="stroke:#A80036;stroke-width:1.5;" width="160" x="554" y="1483.7188"/><text fill="#000000" font-family="sans-serif" font-size="14" lengthAdjust="spacing" textLength="140" x="564" y="1506.7139">О начале экзамена</text><path d="M504,1501.8672 L514,1501.8672 C529,1501.8672 529,1501.8672 544,1501.8672 L554,1501.8672 " fill="none" style="stroke:#A80036;stroke-width:1.0;"/><rect fill="#FEFECE" filter="url(#f1sljeprq2q0c)" height="36.2969" rx="12.5" ry="12.5" style="stroke:#A80036;stroke-width:1.5;" width="235" x="554" y="1540.0156"/><text fill="#000000" font-family="sans-serif" font-size="14" lengthAdjust="spacing" textLength="215" x="564" y="1563.0107">О проверке сданной работы</text><path d="M504,1501.8672 L514,1501.8672 C529,1501.8672 529,1558.1641 544,1558.1641 L554,1558.1641 " fill="none" style="stroke:#A80036;stroke-width:1.0;"/><path d="M351,1614.4609 L361,1614.4609 C376,1614.4609 376,1501.8672 391,1501.8672 L401,1501.8672 " fill="none" style="stroke:#A80036;stroke-width:1.0;"/><rect fill="#FFA500" filter="url(#f1sljeprq2q0c)" height="36.2969" rx="12.5" ry="12.5" style="stroke:#A80036;stroke-width:1.5;" width="149" x="401" y="1652.6094"/><text fill="#000000" font-family="sans-serif" font-size="14" lengthAdjust="spacing" textLength="129" x="411" y="1675.6045">Преподавателям</text><rect fill="#FEFECE" filter="url(#f1sljeprq2q0c)" height="36.2969" rx="12.5" ry="12.5" style="stroke:#A80036;stroke-width:1.5;" width="306" x="600" y="1596.3125"/><text fill="#000000" font-family="sans-serif" font-size="14" lengthAdjust="spacing" textLength="286" x="610" y="1619.3076">О предоставлении доступа к системе</text><path d="M550,1670.7578 L560,1670.7578 C575,1670.7578 575,1614.4609 590,1614.4609 L600,1614.4609 " fill="none" style="stroke:#A80036;stroke-width:1.0;"/><rect fill="#FEFECE" filter="url(#f1sljeprq2q0c)" height="36.2969" rx="12.5" ry="12.5" style="stroke:#A80036;stroke-width:1.5;" width="392" x="600" y="1652.6094"/><text fill="#000000" font-family="sans-serif" font-size="14" lengthAdjust="spacing" textLength="372" x="610" y="1675.6045">О включении/исключении в список составителей</text><path d="M550,1670.7578 L560,1670.7578 C575,1670.7578 575,1670.7578 590,1670.7578 L600,1670.7578 " fill="none" style="stroke:#A80036;stroke-width:1.0;"/><rect fill="#FEFECE" filter="url(#f1sljeprq2q0c)" height="36.2969" rx="12.5" ry="12.5" style="stroke:#A80036;stroke-width:1.5;" width="269" x="600" y="1708.9063"/><text fill="#000000" font-family="sans-serif" font-size="14" lengthAdjust="spacing" textLength="249" x="610" y="1731.9014">О наличии непроверенных работ</text><path d="M550,1670.7578 L560,1670.7578 C575,1670.7578 575,1727.0547 590,1727.0547 L600,1727.0547 " fill="none" style="stroke:#A80036;stroke-width:1.0;"/><path d="M351,1614.4609 L361,1614.4609 C376,1614.4609 376,1670.7578 391,1670.7578 L401,1670.7578 " fill="none" style="stroke:#A80036;stroke-width:1.0;"/><rect fill="#FFA500" filter="url(#f1sljeprq2q0c)" height="36.2969" rx="12.5" ry="12.5" style="stroke:#A80036;stroke-width:1.5;" width="160" x="401" y="1765.2031"/><text fill="#000000" font-family="sans-serif" font-size="14" lengthAdjust="spacing" textLength="140" x="411" y="1788.1982">Администраторам</text><path d="M351,1614.4609 L361,1614.4609 C376,1614.4609 376,1783.3516 391,1783.3516 L401,1783.3516 " fill="none" style="stroke:#A80036;stroke-width:1.0;"/><path d="M103,910.75 L113,910.75 C128,910.75 128,1614.4609 143,1614.4609 L153,1614.4609 " fill="none" style="stroke:#A80036;stroke-width:1.0;"/><!--MD5=[f76a436f4c19d1c37548d69e0af6612b]
@startmindmap
* AlphaTest
** Составление тестов
*** Просмотр списка тестов
*** Создание теста
*** Редактирование теста
**** Изменение настроек проведения теста
**** Работа со списком вопросов
***** Добавление/удаление/редактирование вопроса
***** Изменение порядка вопросов в тесте
*** Списание теста в архив
*** Создание новой редакции теста
*** Управление доступом к тесту
**** Добавить составителя
**** Выйти из числа составителей
**** Отправка заявки на исключение составителя
**[#Orange] Работа с учебными группами
**[#Orange] Проведение экзаменов
*** Планирование экзамена
*** Просмотр списка экзаменов
** Сдача тестирования
*** Просмотр списка доступных тестов
*** Выполнение задания
**** Просмотр информации о сдаваемом тесте
**** Просмотр списка вопросов
**** Просмотр информации о вопросе
**** Переход между вопросами
**** Ответы на вопросы
***** Отправка ответа
***** Отзыв ответа
***** Повторная отправка
**** Завершение тестирования
** Просмотр результатов тестирования
** Проверка работ
*** Просмотр списка непроверенных работ
*** Ручная проверка работы преподавателем
*** Автоматическая проверка работы
**[#Orange] Отчётность
**[#Orange] Управление учётными записями
**[#Orange] Отправка уведомлений
*** Студентам
**** О предоставлении доступа к системе
**** О начале экзамена
**** О проверке сданной работы
***[#Orange] Преподавателям
**** О предоставлении доступа к системе
**** О включении/исключении в список составителей
**** О наличии непроверенных работ
***[#Orange] Администраторам
@endmindmap

PlantUML version 1.2021.9beta2(Unknown compile time)
(GPL source distribution)
Java Runtime: Java(TM) SE Runtime Environment
JVM: Java HotSpot(TM) 64-Bit Server VM
Default Encoding: UTF-8
Language: en
Country: US
--></g></svg>