<?xml version="1.0" encoding="UTF-8" standalone="no"?><svg xmlns="http://www.w3.org/2000/svg" xmlns:xlink="http://www.w3.org/1999/xlink" contentScriptType="application/ecmascript" contentStyleType="text/css" height="2555px" preserveAspectRatio="none" style="width:1311px;height:2555px;background:#FFFFFF;" version="1.1" viewBox="0 0 1311 2555" width="1311px" zoomAndPan="magnify"><defs><filter height="300%" id="f1gvxp87nrwd57" width="300%" x="-1" y="-1"><feGaussianBlur result="blurOut" stdDeviation="2.0"/><feColorMatrix in="blurOut" result="blurOut2" type="matrix" values="0 0 0 0 0 0 0 0 0 0 0 0 0 0 0 0 0 0 .4 0"/><feOffset dx="4.0" dy="4.0" in="blurOut2" result="blurOut3"/><feBlend in="SourceGraphic" in2="blurOut3" mode="normal"/></filter></defs><g><rect fill="#FEFECE" filter="url(#f1gvxp87nrwd57)" height="36.2969" rx="12.5" ry="12.5" style="stroke:#A80036;stroke-width:1.5;" width="93" x="10" y="1258.5313"/><text fill="#000000" font-family="sans-serif" font-size="14" lengthAdjust="spacing" textLength="73" x="20" y="1281.5264">AlphaTest</text><rect fill="#FEFECE" filter="url(#f1gvxp87nrwd57)" height="36.2969" rx="12.5" ry="12.5" style="stroke:#A80036;stroke-width:1.5;" width="175" x="153" y="245.1875"/><text fill="#000000" font-family="sans-serif" font-size="14" lengthAdjust="spacing" textLength="155" x="163" y="268.1826">Составление тестов</text><rect fill="#FEFECE" filter="url(#f1gvxp87nrwd57)" height="36.2969" rx="12.5" ry="12.5" style="stroke:#A80036;stroke-width:1.5;" width="208" x="378" y="20"/><text fill="#000000" font-family="sans-serif" font-size="14" lengthAdjust="spacing" textLength="188" x="388" y="42.9951">Просмотр списка тестов</text><path d="M328,263.3359 L338,263.3359 C353,263.3359 353,38.1484 368,38.1484 L378,38.1484 " fill="none" style="stroke:#A80036;stroke-width:1.0;"/><rect fill="#FEFECE" filter="url(#f1gvxp87nrwd57)" height="36.2969" rx="12.5" ry="12.5" style="stroke:#A80036;stroke-width:1.5;" width="139" x="378" y="76.2969"/><text fill="#000000" font-family="sans-serif" font-size="14" lengthAdjust="spacing" textLength="119" x="388" y="99.292">Создание теста</text><path d="M328,263.3359 L338,263.3359 C353,263.3359 353,94.4453 368,94.4453 L378,94.4453 " fill="none" style="stroke:#A80036;stroke-width:1.0;"/><rect fill="#FEFECE" filter="url(#f1gvxp87nrwd57)" height="36.2969" rx="12.5" ry="12.5" style="stroke:#A80036;stroke-width:1.5;" width="193" x="378" y="132.5938"/><text fill="#000000" font-family="sans-serif" font-size="14" lengthAdjust="spacing" textLength="173" x="388" y="155.5889">Редактирование теста</text><rect fill="#FEFECE" filter="url(#f1gvxp87nrwd57)" height="36.2969" rx="12.5" ry="12.5" style="stroke:#A80036;stroke-width:1.5;" width="321" x="621" y="76.2969"/><text fill="#000000" font-family="sans-serif" font-size="14" lengthAdjust="spacing" textLength="301" x="631" y="99.292">Изменение настроек проведения теста</text><path d="M571,150.7422 L581,150.7422 C596,150.7422 596,94.4453 611,94.4453 L621,94.4453 " fill="none" style="stroke:#A80036;stroke-width:1.0;"/><rect fill="#FEFECE" filter="url(#f1gvxp87nrwd57)" height="36.2969" rx="12.5" ry="12.5" style="stroke:#A80036;stroke-width:1.5;" width="236" x="621" y="160.7422"/><text fill="#000000" font-family="sans-serif" font-size="14" lengthAdjust="spacing" textLength="216" x="631" y="183.7373">Работа со списком вопросов</text><rect fill="#FEFECE" filter="url(#f1gvxp87nrwd57)" height="36.2969" rx="12.5" ry="12.5" style="stroke:#A80036;stroke-width:1.5;" width="385" x="907" y="132.5938"/><text fill="#000000" font-family="sans-serif" font-size="14" lengthAdjust="spacing" textLength="365" x="917" y="155.5889">Добавление/удаление/редактирование вопроса</text><path d="M857,178.8906 L867,178.8906 C882,178.8906 882,150.7422 897,150.7422 L907,150.7422 " fill="none" style="stroke:#A80036;stroke-width:1.0;"/><rect fill="#FEFECE" filter="url(#f1gvxp87nrwd57)" height="36.2969" rx="12.5" ry="12.5" style="stroke:#A80036;stroke-width:1.5;" width="308" x="907" y="188.8906"/><text fill="#000000" font-family="sans-serif" font-size="14" lengthAdjust="spacing" textLength="288" x="917" y="211.8857">Изменение порядка вопросов в тесте</text><path d="M857,178.8906 L867,178.8906 C882,178.8906 882,207.0391 897,207.0391 L907,207.0391 " fill="none" style="stroke:#A80036;stroke-width:1.0;"/><path d="M571,150.7422 L581,150.7422 C596,150.7422 596,178.8906 611,178.8906 L621,178.8906 " fill="none" style="stroke:#A80036;stroke-width:1.0;"/><path d="M328,263.3359 L338,263.3359 C353,263.3359 353,150.7422 368,150.7422 L378,150.7422 " fill="none" style="stroke:#A80036;stroke-width:1.0;"/><rect fill="#FEFECE" filter="url(#f1gvxp87nrwd57)" height="36.2969" rx="12.5" ry="12.5" style="stroke:#A80036;stroke-width:1.5;" width="199" x="378" y="188.8906"/><text fill="#000000" font-family="sans-serif" font-size="14" lengthAdjust="spacing" textLength="179" x="388" y="211.8857">Списание теста в архив</text><path d="M328,263.3359 L338,263.3359 C353,263.3359 353,207.0391 368,207.0391 L378,207.0391 " fill="none" style="stroke:#A80036;stroke-width:1.0;"/><rect fill="#FEFECE" filter="url(#f1gvxp87nrwd57)" height="36.2969" rx="12.5" ry="12.5" style="stroke:#A80036;stroke-width:1.5;" width="266" x="378" y="245.1875"/><text fill="#000000" font-family="sans-serif" font-size="14" lengthAdjust="spacing" textLength="246" x="388" y="268.1826">Создание новой редакции теста</text><path d="M328,263.3359 L338,263.3359 C353,263.3359 353,263.3359 368,263.3359 L378,263.3359 " fill="none" style="stroke:#A80036;stroke-width:1.0;"/><rect fill="#FEFECE" filter="url(#f1gvxp87nrwd57)" height="36.2969" rx="12.5" ry="12.5" style="stroke:#A80036;stroke-width:1.5;" width="247" x="378" y="385.9297"/><text fill="#000000" font-family="sans-serif" font-size="14" lengthAdjust="spacing" textLength="227" x="388" y="408.9248">Управление доступом к тесту</text><rect fill="#FEFECE" filter="url(#f1gvxp87nrwd57)" height="36.2969" rx="12.5" ry="12.5" style="stroke:#A80036;stroke-width:1.5;" width="211" x="675" y="301.4844"/><text fill="#000000" font-family="sans-serif" font-size="14" lengthAdjust="spacing" textLength="191" x="685" y="324.4795">Добавление составителя</text><path d="M625,404.0781 L635,404.0781 C650,404.0781 650,319.6328 665,319.6328 L675,319.6328 " fill="none" style="stroke:#A80036;stroke-width:1.0;"/><rect fill="#FEFECE" filter="url(#f1gvxp87nrwd57)" height="36.2969" rx="12.5" ry="12.5" style="stroke:#A80036;stroke-width:1.5;" width="244" x="675" y="357.7813"/><text fill="#000000" font-family="sans-serif" font-size="14" lengthAdjust="spacing" textLength="224" x="685" y="380.7764">Выход из числа составителей</text><path d="M625,404.0781 L635,404.0781 C650,404.0781 650,375.9297 665,375.9297 L675,375.9297 " fill="none" style="stroke:#A80036;stroke-width:1.0;"/><rect fill="#FEFECE" filter="url(#f1gvxp87nrwd57)" height="36.2969" rx="12.5" ry="12.5" style="stroke:#A80036;stroke-width:1.5;" width="418" x="675" y="414.0781"/><text fill="#000000" font-family="sans-serif" font-size="14" lengthAdjust="spacing" textLength="398" x="685" y="437.0732">Исключение преподавателя из списка составителей</text><path d="M625,404.0781 L635,404.0781 C650,404.0781 650,432.2266 665,432.2266 L675,432.2266 " fill="none" style="stroke:#A80036;stroke-width:1.0;"/><rect fill="#FEFECE" filter="url(#f1gvxp87nrwd57)" height="36.2969" rx="12.5" ry="12.5" style="stroke:#A80036;stroke-width:1.5;" width="323" x="675" y="470.375"/><text fill="#000000" font-family="sans-serif" font-size="14" lengthAdjust="spacing" textLength="303" x="685" y="493.3701">Передача тест другому преподавателю</text><path d="M625,404.0781 L635,404.0781 C650,404.0781 650,488.5234 665,488.5234 L675,488.5234 " fill="none" style="stroke:#A80036;stroke-width:1.0;"/><path d="M328,263.3359 L338,263.3359 C353,263.3359 353,404.0781 368,404.0781 L378,404.0781 " fill="none" style="stroke:#A80036;stroke-width:1.0;"/><path d="M103,1276.6797 L113,1276.6797 C128,1276.6797 128,263.3359 143,263.3359 L153,263.3359 " fill="none" style="stroke:#A80036;stroke-width:1.0;"/><rect fill="#FEFECE" filter="url(#f1gvxp87nrwd57)" height="36.2969" rx="12.5" ry="12.5" style="stroke:#A80036;stroke-width:1.5;" width="238" x="153" y="639.2656"/><text fill="#000000" font-family="sans-serif" font-size="14" lengthAdjust="spacing" textLength="218" x="163" y="662.2607">Работа с учебными группами</text><rect fill="#FEFECE" filter="url(#f1gvxp87nrwd57)" height="36.2969" rx="12.5" ry="12.5" style="stroke:#A80036;stroke-width:1.5;" width="199" x="441" y="526.6719"/><text fill="#000000" font-family="sans-serif" font-size="14" lengthAdjust="spacing" textLength="179" x="451" y="549.667">Просмотр списка групп</text><path d="M391,657.4141 L401,657.4141 C416,657.4141 416,544.8203 431,544.8203 L441,544.8203 " fill="none" style="stroke:#A80036;stroke-width:1.0;"/><rect fill="#FEFECE" filter="url(#f1gvxp87nrwd57)" height="36.2969" rx="12.5" ry="12.5" style="stroke:#A80036;stroke-width:1.5;" width="151" x="441" y="582.9688"/><text fill="#000000" font-family="sans-serif" font-size="14" lengthAdjust="spacing" textLength="131" x="451" y="605.9639">Создание группы</text><path d="M391,657.4141 L401,657.4141 C416,657.4141 416,601.1172 431,601.1172 L441,601.1172 " fill="none" style="stroke:#A80036;stroke-width:1.0;"/><rect fill="#FEFECE" filter="url(#f1gvxp87nrwd57)" height="36.2969" rx="12.5" ry="12.5" style="stroke:#A80036;stroke-width:1.5;" width="219" x="441" y="639.2656"/><text fill="#000000" font-family="sans-serif" font-size="14" lengthAdjust="spacing" textLength="199" x="451" y="662.2607">Расформирование группы</text><path d="M391,657.4141 L401,657.4141 C416,657.4141 416,657.4141 431,657.4141 L441,657.4141 " fill="none" style="stroke:#A80036;stroke-width:1.0;"/><rect fill="#FEFECE" filter="url(#f1gvxp87nrwd57)" height="36.2969" rx="12.5" ry="12.5" style="stroke:#A80036;stroke-width:1.5;" width="501" x="441" y="695.5625"/><text fill="#000000" font-family="sans-serif" font-size="14" lengthAdjust="spacing" textLength="481" x="451" y="718.5576">Изменение состава группы (добавление/исключение учащихся)</text><path d="M391,657.4141 L401,657.4141 C416,657.4141 416,713.7109 431,713.7109 L441,713.7109 " fill="none" style="stroke:#A80036;stroke-width:1.0;"/><rect fill="#FEFECE" filter="url(#f1gvxp87nrwd57)" height="36.2969" rx="12.5" ry="12.5" style="stroke:#A80036;stroke-width:1.5;" width="241" x="441" y="751.8594"/><text fill="#000000" font-family="sans-serif" font-size="14" lengthAdjust="spacing" textLength="221" x="451" y="774.8545">Назначение куратора группы</text><path d="M391,657.4141 L401,657.4141 C416,657.4141 416,770.0078 431,770.0078 L441,770.0078 " fill="none" style="stroke:#A80036;stroke-width:1.0;"/><path d="M103,1276.6797 L113,1276.6797 C128,1276.6797 128,657.4141 143,657.4141 L153,657.4141 " fill="none" style="stroke:#A80036;stroke-width:1.0;"/><rect fill="#FEFECE" filter="url(#f1gvxp87nrwd57)" height="36.2969" rx="12.5" ry="12.5" style="stroke:#A80036;stroke-width:1.5;" width="197" x="153" y="892.6016"/><text fill="#000000" font-family="sans-serif" font-size="14" lengthAdjust="spacing" textLength="177" x="163" y="915.5967">Проведение экзаменов</text><rect fill="#FEFECE" filter="url(#f1gvxp87nrwd57)" height="36.2969" rx="12.5" ry="12.5" style="stroke:#A80036;stroke-width:1.5;" width="235" x="400" y="808.1563"/><text fill="#000000" font-family="sans-serif" font-size="14" lengthAdjust="spacing" textLength="215" x="410" y="831.1514">Просмотр списка экзаменов</text><path d="M350,910.75 L360,910.75 C375,910.75 375,826.3047 390,826.3047 L400,826.3047 " fill="none" style="stroke:#A80036;stroke-width:1.0;"/><rect fill="#FEFECE" filter="url(#f1gvxp87nrwd57)" height="36.2969" rx="12.5" ry="12.5" style="stroke:#A80036;stroke-width:1.5;" width="181" x="400" y="864.4531"/><text fill="#000000" font-family="sans-serif" font-size="14" lengthAdjust="spacing" textLength="161" x="410" y="887.4482">Назначение экзамена</text><path d="M350,910.75 L360,910.75 C375,910.75 375,882.6016 390,882.6016 L400,882.6016 " fill="none" style="stroke:#A80036;stroke-width:1.0;"/><rect fill="#FEFECE" filter="url(#f1gvxp87nrwd57)" height="36.2969" rx="12.5" ry="12.5" style="stroke:#A80036;stroke-width:1.5;" width="216" x="400" y="920.75"/><text fill="#000000" font-family="sans-serif" font-size="14" lengthAdjust="spacing" textLength="196" x="410" y="943.7451">Перенос сроков экзамена</text><path d="M350,910.75 L360,910.75 C375,910.75 375,938.8984 390,938.8984 L400,938.8984 " fill="none" style="stroke:#A80036;stroke-width:1.0;"/><rect fill="#FEFECE" filter="url(#f1gvxp87nrwd57)" height="36.2969" rx="12.5" ry="12.5" style="stroke:#A80036;stroke-width:1.5;" width="151" x="400" y="977.0469"/><text fill="#000000" font-family="sans-serif" font-size="14" lengthAdjust="spacing" textLength="131" x="410" y="1000.042">Отмена экзамена</text><path d="M350,910.75 L360,910.75 C375,910.75 375,995.1953 390,995.1953 L400,995.1953 " fill="none" style="stroke:#A80036;stroke-width:1.0;"/><path d="M103,1276.6797 L113,1276.6797 C128,1276.6797 128,910.75 143,910.75 L153,910.75 " fill="none" style="stroke:#A80036;stroke-width:1.0;"/><rect fill="#FEFECE" filter="url(#f1gvxp87nrwd57)" height="36.2969" rx="12.5" ry="12.5" style="stroke:#A80036;stroke-width:1.5;" width="175" x="153" y="1258.5313"/><text fill="#000000" font-family="sans-serif" font-size="14" lengthAdjust="spacing" textLength="155" x="163" y="1281.5264">Сдача тестирования</text><rect fill="#FEFECE" filter="url(#f1gvxp87nrwd57)" height="36.2969" rx="12.5" ry="12.5" style="stroke:#A80036;stroke-width:1.5;" width="320" x="378" y="1033.3438"/><text fill="#000000" font-family="sans-serif" font-size="14" lengthAdjust="spacing" textLength="300" x="388" y="1056.3389">Просмотр списка доступных экзаменов</text><path d="M328,1276.6797 L338,1276.6797 C353,1276.6797 353,1051.4922 368,1051.4922 L378,1051.4922 " fill="none" style="stroke:#A80036;stroke-width:1.0;"/><rect fill="#FEFECE" filter="url(#f1gvxp87nrwd57)" height="36.2969" rx="12.5" ry="12.5" style="stroke:#A80036;stroke-width:1.5;" width="178" x="378" y="1286.6797"/><text fill="#000000" font-family="sans-serif" font-size="14" lengthAdjust="spacing" textLength="158" x="388" y="1309.6748">Выполнение задания</text><rect fill="#FEFECE" filter="url(#f1gvxp87nrwd57)" height="36.2969" rx="12.5" ry="12.5" style="stroke:#A80036;stroke-width:1.5;" width="345" x="606" y="1089.6406"/><text fill="#000000" font-family="sans-serif" font-size="14" lengthAdjust="spacing" textLength="325" x="616" y="1112.6357">Просмотр информации о сдаваемом тесте</text><path d="M556,1304.8281 L566,1304.8281 C581,1304.8281 581,1107.7891 596,1107.7891 L606,1107.7891 " fill="none" style="stroke:#A80036;stroke-width:1.0;"/><rect fill="#FEFECE" filter="url(#f1gvxp87nrwd57)" height="36.2969" rx="12.5" ry="12.5" style="stroke:#A80036;stroke-width:1.5;" width="227" x="606" y="1145.9375"/><text fill="#000000" font-family="sans-serif" font-size="14" lengthAdjust="spacing" textLength="207" x="616" y="1168.9326">Просмотр списка вопросов</text><path d="M556,1304.8281 L566,1304.8281 C581,1304.8281 581,1164.0859 596,1164.0859 L606,1164.0859 " fill="none" style="stroke:#A80036;stroke-width:1.0;"/><rect fill="#FEFECE" filter="url(#f1gvxp87nrwd57)" height="36.2969" rx="12.5" ry="12.5" style="stroke:#A80036;stroke-width:1.5;" width="277" x="606" y="1202.2344"/><text fill="#000000" font-family="sans-serif" font-size="14" lengthAdjust="spacing" textLength="257" x="616" y="1225.2295">Просмотр информации о вопросе</text><path d="M556,1304.8281 L566,1304.8281 C581,1304.8281 581,1220.3828 596,1220.3828 L606,1220.3828 " fill="none" style="stroke:#A80036;stroke-width:1.0;"/><rect fill="#FEFECE" filter="url(#f1gvxp87nrwd57)" height="36.2969" rx="12.5" ry="12.5" style="stroke:#A80036;stroke-width:1.5;" width="226" x="606" y="1258.5313"/><text fill="#000000" font-family="sans-serif" font-size="14" lengthAdjust="spacing" textLength="206" x="616" y="1281.5264">Переход между вопросами</text><path d="M556,1304.8281 L566,1304.8281 C581,1304.8281 581,1276.6797 596,1276.6797 L606,1276.6797 " fill="none" style="stroke:#A80036;stroke-width:1.0;"/><rect fill="#FEFECE" filter="url(#f1gvxp87nrwd57)" height="36.2969" rx="12.5" ry="12.5" style="stroke:#A80036;stroke-width:1.5;" width="168" x="606" y="1371.125"/><text fill="#000000" font-family="sans-serif" font-size="14" lengthAdjust="spacing" textLength="148" x="616" y="1394.1201">Ответы на вопросы</text><rect fill="#FEFECE" filter="url(#f1gvxp87nrwd57)" height="36.2969" rx="12.5" ry="12.5" style="stroke:#A80036;stroke-width:1.5;" width="150" x="824" y="1314.8281"/><text fill="#000000" font-family="sans-serif" font-size="14" lengthAdjust="spacing" textLength="130" x="834" y="1337.8232">Отправка ответа</text><path d="M774,1389.2734 L784,1389.2734 C799,1389.2734 799,1332.9766 814,1332.9766 L824,1332.9766 " fill="none" style="stroke:#A80036;stroke-width:1.0;"/><rect fill="#FEFECE" filter="url(#f1gvxp87nrwd57)" height="36.2969" rx="12.5" ry="12.5" style="stroke:#A80036;stroke-width:1.5;" width="125" x="824" y="1371.125"/><text fill="#000000" font-family="sans-serif" font-size="14" lengthAdjust="spacing" textLength="105" x="834" y="1394.1201">Отзыв ответа</text><path d="M774,1389.2734 L784,1389.2734 C799,1389.2734 799,1389.2734 814,1389.2734 L824,1389.2734 " fill="none" style="stroke:#A80036;stroke-width:1.0;"/><rect fill="#FEFECE" filter="url(#f1gvxp87nrwd57)" height="36.2969" rx="12.5" ry="12.5" style="stroke:#A80036;stroke-width:1.5;" width="177" x="824" y="1427.4219"/><text fill="#000000" font-family="sans-serif" font-size="14" lengthAdjust="spacing" textLength="157" x="834" y="1450.417">Повторная отправка</text><path d="M774,1389.2734 L784,1389.2734 C799,1389.2734 799,1445.5703 814,1445.5703 L824,1445.5703 " fill="none" style="stroke:#A80036;stroke-width:1.0;"/><path d="M556,1304.8281 L566,1304.8281 C581,1304.8281 581,1389.2734 596,1389.2734 L606,1389.2734 " fill="none" style="stroke:#A80036;stroke-width:1.0;"/><rect fill="#FEFECE" filter="url(#f1gvxp87nrwd57)" height="36.2969" rx="12.5" ry="12.5" style="stroke:#A80036;stroke-width:1.5;" width="224" x="606" y="1483.7188"/><text fill="#000000" font-family="sans-serif" font-size="14" lengthAdjust="spacing" textLength="204" x="616" y="1506.7139">Завершение тестирования</text><path d="M556,1304.8281 L566,1304.8281 C581,1304.8281 581,1501.8672 596,1501.8672 L606,1501.8672 " fill="none" style="stroke:#A80036;stroke-width:1.0;"/><path d="M328,1276.6797 L338,1276.6797 C353,1276.6797 353,1304.8281 368,1304.8281 L378,1304.8281 " fill="none" style="stroke:#A80036;stroke-width:1.0;"/><path d="M103,1276.6797 L113,1276.6797 C128,1276.6797 128,1276.6797 143,1276.6797 L153,1276.6797 " fill="none" style="stroke:#A80036;stroke-width:1.0;"/><rect fill="#FEFECE" filter="url(#f1gvxp87nrwd57)" height="36.2969" rx="12.5" ry="12.5" style="stroke:#A80036;stroke-width:1.5;" width="308" x="153" y="1540.0156"/><text fill="#000000" font-family="sans-serif" font-size="14" lengthAdjust="spacing" textLength="288" x="163" y="1563.0107">Просмотр результатов тестирования</text><path d="M103,1276.6797 L113,1276.6797 C128,1276.6797 128,1558.1641 143,1558.1641 L153,1558.1641 " fill="none" style="stroke:#A80036;stroke-width:1.0;"/><rect fill="#FEFECE" filter="url(#f1gvxp87nrwd57)" height="36.2969" rx="12.5" ry="12.5" style="stroke:#A80036;stroke-width:1.5;" width="143" x="153" y="1652.6094"/><text fill="#000000" font-family="sans-serif" font-size="14" lengthAdjust="spacing" textLength="123" x="163" y="1675.6045">Проверка работ</text><rect fill="#FEFECE" filter="url(#f1gvxp87nrwd57)" height="36.2969" rx="12.5" ry="12.5" style="stroke:#A80036;stroke-width:1.5;" width="324" x="346" y="1596.3125"/><text fill="#000000" font-family="sans-serif" font-size="14" lengthAdjust="spacing" textLength="304" x="356" y="1619.3076">Просмотр списка непроверенных работ</text><path d="M296,1670.7578 L306,1670.7578 C321,1670.7578 321,1614.4609 336,1614.4609 L346,1614.4609 " fill="none" style="stroke:#A80036;stroke-width:1.0;"/><rect fill="#FEFECE" filter="url(#f1gvxp87nrwd57)" height="36.2969" rx="12.5" ry="12.5" style="stroke:#A80036;stroke-width:1.5;" width="340" x="346" y="1652.6094"/><text fill="#000000" font-family="sans-serif" font-size="14" lengthAdjust="spacing" textLength="320" x="356" y="1675.6045">Ручная проверка работы преподавателем</text><path d="M296,1670.7578 L306,1670.7578 C321,1670.7578 321,1670.7578 336,1670.7578 L346,1670.7578 " fill="none" style="stroke:#A80036;stroke-width:1.0;"/><rect fill="#FEFECE" filter="url(#f1gvxp87nrwd57)" height="36.2969" rx="12.5" ry="12.5" style="stroke:#A80036;stroke-width:1.5;" width="282" x="346" y="1708.9063"/><text fill="#000000" font-family="sans-serif" font-size="14" lengthAdjust="spacing" textLength="262" x="356" y="1731.9014">Автоматическая проверка работы</text><path d="M296,1670.7578 L306,1670.7578 C321,1670.7578 321,1727.0547 336,1727.0547 L346,1727.0547 " fill="none" style="stroke:#A80036;stroke-width:1.0;"/><path d="M103,1276.6797 L113,1276.6797 C128,1276.6797 128,1670.7578 143,1670.7578 L153,1670.7578 " fill="none" style="stroke:#A80036;stroke-width:1.0;"/><rect fill="#FFA500" filter="url(#f1gvxp87nrwd57)" height="36.2969" rx="12.5" ry="12.5" style="stroke:#A80036;stroke-width:1.5;" width="110" x="153" y="1708.9063"/><text fill="#000000" font-family="sans-serif" font-size="14" lengthAdjust="spacing" textLength="90" x="163" y="1731.9014">Отчётность</text><path d="M103,1276.6797 L113,1276.6797 C128,1276.6797 128,1727.0547 143,1727.0547 L153,1727.0547 " fill="none" style="stroke:#A80036;stroke-width:1.0;"/><rect fill="#FFA500" filter="url(#f1gvxp87nrwd57)" height="36.2969" rx="12.5" ry="12.5" style="stroke:#A80036;stroke-width:1.5;" width="263" x="153" y="1849.6484"/><text fill="#000000" font-family="sans-serif" font-size="14" lengthAdjust="spacing" textLength="243" x="163" y="1872.6436">Управление учётными записями</text><rect fill="#FEFECE" filter="url(#f1gvxp87nrwd57)" height="36.2969" rx="12.5" ry="12.5" style="stroke:#A80036;stroke-width:1.5;" width="248" x="466" y="1765.2031"/><text fill="#000000" font-family="sans-serif" font-size="14" lengthAdjust="spacing" textLength="228" x="476" y="1788.1982">Ввод данных о пользователях</text><path d="M416,1867.7969 L426,1867.7969 C441,1867.7969 441,1783.3516 456,1783.3516 L466,1783.3516 " fill="none" style="stroke:#A80036;stroke-width:1.0;"/><rect fill="#FEFECE" filter="url(#f1gvxp87nrwd57)" height="36.2969" rx="12.5" ry="12.5" style="stroke:#A80036;stroke-width:1.5;" width="329" x="466" y="1821.5"/><text fill="#000000" font-family="sans-serif" font-size="14" lengthAdjust="spacing" textLength="309" x="476" y="1844.4951">Массовый импорт сведений об учащихся</text><path d="M416,1867.7969 L426,1867.7969 C441,1867.7969 441,1839.6484 456,1839.6484 L466,1839.6484 " fill="none" style="stroke:#A80036;stroke-width:1.0;"/><rect fill="#FEFECE" filter="url(#f1gvxp87nrwd57)" height="36.2969" rx="12.5" ry="12.5" style="stroke:#A80036;stroke-width:1.5;" width="343" x="466" y="1877.7969"/><text fill="#000000" font-family="sans-serif" font-size="14" lengthAdjust="spacing" textLength="323" x="476" y="1900.792">Назначение ролей доступа пользователям</text><path d="M416,1867.7969 L426,1867.7969 C441,1867.7969 441,1895.9453 456,1895.9453 L466,1895.9453 " fill="none" style="stroke:#A80036;stroke-width:1.0;"/><rect fill="#FEFECE" filter="url(#f1gvxp87nrwd57)" height="36.2969" rx="12.5" ry="12.5" style="stroke:#A80036;stroke-width:1.5;" width="231" x="466" y="1934.0938"/><text fill="#000000" font-family="sans-serif" font-size="14" lengthAdjust="spacing" textLength="211" x="476" y="1957.0889">Блокировка учётной записи</text><path d="M416,1867.7969 L426,1867.7969 C441,1867.7969 441,1952.2422 456,1952.2422 L466,1952.2422 " fill="none" style="stroke:#A80036;stroke-width:1.0;"/><path d="M103,1276.6797 L113,1276.6797 C128,1276.6797 128,1867.7969 143,1867.7969 L153,1867.7969 " fill="none" style="stroke:#A80036;stroke-width:1.0;"/><rect fill="#FEFECE" filter="url(#f1gvxp87nrwd57)" height="36.2969" rx="12.5" ry="12.5" style="stroke:#A80036;stroke-width:1.5;" width="198" x="153" y="2243.7266"/><text fill="#000000" font-family="sans-serif" font-size="14" lengthAdjust="spacing" textLength="178" x="163" y="2266.7217">Отправка уведомлений</text><rect fill="#FEFECE" filter="url(#f1gvxp87nrwd57)" height="36.2969" rx="12.5" ry="12.5" style="stroke:#A80036;stroke-width:1.5;" width="103" x="401" y="2046.6875"/><text fill="#000000" font-family="sans-serif" font-size="14" lengthAdjust="spacing" textLength="83" x="411" y="2069.6826">Студентам</text><rect fill="#FEFECE" filter="url(#f1gvxp87nrwd57)" height="36.2969" rx="12.5" ry="12.5" style="stroke:#A80036;stroke-width:1.5;" width="306" x="554" y="1990.3906"/><text fill="#000000" font-family="sans-serif" font-size="14" lengthAdjust="spacing" textLength="286" x="564" y="2013.3857">О предоставлении доступа к системе</text><path d="M504,2064.8359 L514,2064.8359 C529,2064.8359 529,2008.5391 544,2008.5391 L554,2008.5391 " fill="none" style="stroke:#A80036;stroke-width:1.0;"/><rect fill="#FEFECE" filter="url(#f1gvxp87nrwd57)" height="36.2969" rx="12.5" ry="12.5" style="stroke:#A80036;stroke-width:1.5;" width="160" x="554" y="2046.6875"/><text fill="#000000" font-family="sans-serif" font-size="14" lengthAdjust="spacing" textLength="140" x="564" y="2069.6826">О начале экзамена</text><path d="M504,2064.8359 L514,2064.8359 C529,2064.8359 529,2064.8359 544,2064.8359 L554,2064.8359 " fill="none" style="stroke:#A80036;stroke-width:1.0;"/><rect fill="#FEFECE" filter="url(#f1gvxp87nrwd57)" height="36.2969" rx="12.5" ry="12.5" style="stroke:#A80036;stroke-width:1.5;" width="235" x="554" y="2102.9844"/><text fill="#000000" font-family="sans-serif" font-size="14" lengthAdjust="spacing" textLength="215" x="564" y="2125.9795">О проверке сданной работы</text><path d="M504,2064.8359 L514,2064.8359 C529,2064.8359 529,2121.1328 544,2121.1328 L554,2121.1328 " fill="none" style="stroke:#A80036;stroke-width:1.0;"/><path d="M351,2261.875 L361,2261.875 C376,2261.875 376,2064.8359 391,2064.8359 L401,2064.8359 " fill="none" style="stroke:#A80036;stroke-width:1.0;"/><rect fill="#FEFECE" filter="url(#f1gvxp87nrwd57)" height="36.2969" rx="12.5" ry="12.5" style="stroke:#A80036;stroke-width:1.5;" width="149" x="401" y="2271.875"/><text fill="#000000" font-family="sans-serif" font-size="14" lengthAdjust="spacing" textLength="129" x="411" y="2294.8701">Преподавателям</text><rect fill="#FEFECE" filter="url(#f1gvxp87nrwd57)" height="36.2969" rx="12.5" ry="12.5" style="stroke:#A80036;stroke-width:1.5;" width="306" x="600" y="2159.2813"/><text fill="#000000" font-family="sans-serif" font-size="14" lengthAdjust="spacing" textLength="286" x="610" y="2182.2764">О предоставлении доступа к системе</text><path d="M550,2290.0234 L560,2290.0234 C575,2290.0234 575,2177.4297 590,2177.4297 L600,2177.4297 " fill="none" style="stroke:#A80036;stroke-width:1.0;"/><rect fill="#FEFECE" filter="url(#f1gvxp87nrwd57)" height="36.2969" rx="12.5" ry="12.5" style="stroke:#A80036;stroke-width:1.5;" width="392" x="600" y="2215.5781"/><text fill="#000000" font-family="sans-serif" font-size="14" lengthAdjust="spacing" textLength="372" x="610" y="2238.5732">О включении/исключении в список составителей</text><path d="M550,2290.0234 L560,2290.0234 C575,2290.0234 575,2233.7266 590,2233.7266 L600,2233.7266 " fill="none" style="stroke:#A80036;stroke-width:1.0;"/><rect fill="#FEFECE" filter="url(#f1gvxp87nrwd57)" height="36.2969" rx="12.5" ry="12.5" style="stroke:#A80036;stroke-width:1.5;" width="207" x="600" y="2271.875"/><text fill="#000000" font-family="sans-serif" font-size="14" lengthAdjust="spacing" textLength="187" x="610" y="2294.8701">О передаче прав на тест</text><path d="M550,2290.0234 L560,2290.0234 C575,2290.0234 575,2290.0234 590,2290.0234 L600,2290.0234 " fill="none" style="stroke:#A80036;stroke-width:1.0;"/><rect fill="#FEFECE" filter="url(#f1gvxp87nrwd57)" height="36.2969" rx="12.5" ry="12.5" style="stroke:#A80036;stroke-width:1.5;" width="269" x="600" y="2328.1719"/><text fill="#000000" font-family="sans-serif" font-size="14" lengthAdjust="spacing" textLength="249" x="610" y="2351.167">О наличии непроверенных работ</text><path d="M550,2290.0234 L560,2290.0234 C575,2290.0234 575,2346.3203 590,2346.3203 L600,2346.3203 " fill="none" style="stroke:#A80036;stroke-width:1.0;"/><rect fill="#FEFECE" filter="url(#f1gvxp87nrwd57)" height="36.2969" rx="12.5" ry="12.5" style="stroke:#A80036;stroke-width:1.5;" width="267" x="600" y="2384.4688"/><text fill="#000000" font-family="sans-serif" font-size="14" lengthAdjust="spacing" textLength="247" x="610" y="2407.4639">О назначении куратором группы</text><path d="M550,2290.0234 L560,2290.0234 C575,2290.0234 575,2402.6172 590,2402.6172 L600,2402.6172 " fill="none" style="stroke:#A80036;stroke-width:1.0;"/><path d="M351,2261.875 L361,2261.875 C376,2261.875 376,2290.0234 391,2290.0234 L401,2290.0234 " fill="none" style="stroke:#A80036;stroke-width:1.0;"/><rect fill="#FEFECE" filter="url(#f1gvxp87nrwd57)" height="36.2969" rx="12.5" ry="12.5" style="stroke:#A80036;stroke-width:1.5;" width="160" x="401" y="2468.9141"/><text fill="#000000" font-family="sans-serif" font-size="14" lengthAdjust="spacing" textLength="140" x="411" y="2491.9092">Администраторам</text><rect fill="#FEFECE" filter="url(#f1gvxp87nrwd57)" height="36.2969" rx="12.5" ry="12.5" style="stroke:#A80036;stroke-width:1.5;" width="306" x="611" y="2440.7656"/><text fill="#000000" font-family="sans-serif" font-size="14" lengthAdjust="spacing" textLength="286" x="621" y="2463.7607">О предоставлении доступа к системе</text><path d="M561,2487.0625 L571,2487.0625 C586,2487.0625 586,2458.9141 601,2458.9141 L611,2458.9141 " fill="none" style="stroke:#A80036;stroke-width:1.0;"/><rect fill="#FEFECE" filter="url(#f1gvxp87nrwd57)" height="36.2969" rx="12.5" ry="12.5" style="stroke:#A80036;stroke-width:1.5;" width="291" x="611" y="2497.0625"/><text fill="#000000" font-family="sans-serif" font-size="14" lengthAdjust="spacing" textLength="271" x="621" y="2520.0576">О наличиии необработанных заявок</text><path d="M561,2487.0625 L571,2487.0625 C586,2487.0625 586,2515.2109 601,2515.2109 L611,2515.2109 " fill="none" style="stroke:#A80036;stroke-width:1.0;"/><path d="M351,2261.875 L361,2261.875 C376,2261.875 376,2487.0625 391,2487.0625 L401,2487.0625 " fill="none" style="stroke:#A80036;stroke-width:1.0;"/><path d="M103,1276.6797 L113,1276.6797 C128,1276.6797 128,2261.875 143,2261.875 L153,2261.875 " fill="none" style="stroke:#A80036;stroke-width:1.0;"/><!--MD5=[b6342c08cc7dc6b302bce2eebe62f465]
@startmindmap
* AlphaTest
** Составление тестов
*** Просмотр списка тестов
*** Создание теста
*** Редактирование теста
**** Изменение настроек проведения теста
**** Работа со списком вопросов
***** Добавление/удаление/редактирование вопроса
***** Изменение порядка вопросов в тесте
*** Списание теста в архив
*** Создание новой редакции теста
*** Управление доступом к тесту
**** Добавление составителя
**** Выход из числа составителей
**** Исключение преподавателя из списка составителей
**** Передача тест другому преподавателю
** Работа с учебными группами
*** Просмотр списка групп
*** Создание группы
*** Расформирование группы
*** Изменение состава группы (добавление/исключение учащихся)
*** Назначение куратора группы
** Проведение экзаменов
*** Просмотр списка экзаменов
*** Назначение экзамена
*** Перенос сроков экзамена
*** Отмена экзамена
** Сдача тестирования
*** Просмотр списка доступных экзаменов
*** Выполнение задания
**** Просмотр информации о сдаваемом тесте
**** Просмотр списка вопросов
**** Просмотр информации о вопросе
**** Переход между вопросами
**** Ответы на вопросы
***** Отправка ответа
***** Отзыв ответа
***** Повторная отправка
**** Завершение тестирования
** Просмотр результатов тестирования
** Проверка работ
*** Просмотр списка непроверенных работ
*** Ручная проверка работы преподавателем
*** Автоматическая проверка работы
**[#Orange] Отчётность
**[#Orange] Управление учётными записями
*** Ввод данных о пользователях
*** Массовый импорт сведений об учащихся
*** Назначение ролей доступа пользователям
*** Блокировка учётной записи
** Отправка уведомлений
*** Студентам
**** О предоставлении доступа к системе
**** О начале экзамена
**** О проверке сданной работы
*** Преподавателям
**** О предоставлении доступа к системе
**** О включении/исключении в список составителей
**** О передаче прав на тест
**** О наличии непроверенных работ
**** О назначении куратором группы
*** Администраторам
**** О предоставлении доступа к системе
**** О наличиии необработанных заявок
@endmindmap

PlantUML version 1.2021.9beta2(Unknown compile time)
(GPL source distribution)
Java Runtime: Java(TM) SE Runtime Environment
JVM: Java HotSpot(TM) 64-Bit Server VM
Default Encoding: UTF-8
Language: en
Country: US
--></g></svg>